<?xml version="1.0" encoding="UTF-8" standalone="no"?>
<svg width="95px" height="95px" viewBox="0 0 95 95" version="1.1" xmlns="http://www.w3.org/2000/svg" xmlns:xlink="http://www.w3.org/1999/xlink">
    <!-- Generator: Sketch 40 (33762) - http://www.bohemiancoding.com/sketch -->
    <title>Cat03-Chaussures</title>
    <desc>Created with Sketch.</desc>
    <defs></defs>
    <g id="Symbols" stroke="none" stroke-width="1" fill="none" fill-rule="evenodd">
        <g id="Cat03-Chaussures" stroke="#15153D">
            <g id="Group-3" transform="translate(16.000000, 18.000000)">
                <g id="Group-2" transform="translate(0.000000, 11.246142)">
                    <rect id="Combined-Shape" x="0" y="35.9876543" width="64.2695292" height="6.74768519" rx="2"></rect>
                    <path d="M2.24137929,19.1184411 C3.49863065,11.4661469 2.79619507,5.1757222 2.7568968,4.49907369 C2.71759854,3.82242519 2.42218603,4.03168253 3.45024755,3.70059957 C4.47830907,3.36951661 21.9510416,0.000684838 21.9332511,0.562307065 C25.4413351,8.54374368 28.3484048,13.7592879 33.8305822,18.5428731 C38.8832453,22.9516769 44.0855851,25.7219094 47.5068122,26.4114838 C49.231025,26.7590121 50.9414384,26.7032339 52.1120689,27.5530476 C54.7246386,29.4496304 55.7021097,33.0665144 55.610184,35.9684776 C45.4822249,35.8498245 9.51048037,35.9806877 0.898447672,35.9829691 C0.266528789,31.0076476 0.984127928,26.7707354 2.24137929,19.1184411 Z" id="Path-1"></path>
                    <path d="M52.112069,27.5530478 C53.5057046,27.3959539 56.4938607,27.5482537 59.1687726,29.2399692 C61.8436845,30.9316846 63.288084,34.7657591 63.249378,35.9876541 L55.0881678,35.9876544" id="Path-2"></path>
                    <path d="M19.8929495,8.43460648 L22.9534033,5.06076389" id="Line" stroke-linecap="round"></path>
                    <path d="M21.933252,12.9330633 L24.9937058,9.55922068" id="Line-Copy" stroke-linecap="round"></path>
                    <path d="M24.9937058,16.3069059 L28.0541596,12.9330633" id="Line-Copy-2" stroke-linecap="round"></path>
                    <path d="M28.0541596,19.6807485 L31.1146133,16.3069059" id="Line-Copy-3" stroke-linecap="round"></path>
                    <path d="M31.1146133,23.054591 L34.1750671,19.6807485" id="Line-Copy-4" stroke-linecap="round"></path>
                    <path d="M35.1952183,25.3038194 L38.2556721,21.9299769" id="Line-Copy-5" stroke-linecap="round"></path>
                    <ellipse id="Oval-34" cx="17.9310345" cy="31.4891975" rx="1.12068966" ry="1.1246142"></ellipse>
                    <ellipse id="Oval-34-Copy" cx="24.6551724" cy="31.4891975" rx="1.12068966" ry="1.1246142"></ellipse>
                </g>
                <path d="M4.48275859,14.6199846 L4.48275859,2.00219165 C4.48275859,0.896411737 5.37125653,0 6.48580069,0 L18.1693717,0 C19.2756213,0 20.1724138,0.887552907 20.1724138,2.00314242 L20.1724138,11.8084491 L4.48275859,14.6199846 Z" id="Rectangle-28"></path>
                <path d="M5.04310345,3.5 L19.6551085,3.5" id="Line" stroke-linecap="square"></path>
            </g>
            <g id="Group" transform="translate(18.000000, 68.000000)" stroke-linecap="round">
                <path d="M1.5,3.71428571 L1.5,0.285714286" id="Line"></path>
                <path d="M4.5,3.71428571 L4.5,0.285714286" id="Line"></path>
                <path d="M7.5,3.71428571 L7.5,0.285714286" id="Line"></path>
                <path d="M10.5,3.71428571 L10.5,0.285714286" id="Line"></path>
                <path d="M13.5,3.71428571 L13.5,0.285714286" id="Line"></path>
                <path d="M16.5,3.71428571 L16.5,0.285714286" id="Line"></path>
                <path d="M19.5,3.71428571 L19.5,0.285714286" id="Line-Copy-2"></path>
                <path d="M22.5,3.71428571 L22.5,0.285714286" id="Line-Copy-3"></path>
                <path d="M25.5,3.71428571 L25.5,0.285714286" id="Line-Copy-4"></path>
                <path d="M28.5,3.71428571 L28.5,0.285714286" id="Line-Copy-5"></path>
                <path d="M31.5,3.71428571 L31.5,0.285714286" id="Line-Copy-6"></path>
                <path d="M34.5,3.71428571 L34.5,0.285714286" id="Line"></path>
                <path d="M37.5,3.71428571 L37.5,0.285714286" id="Line"></path>
                <path d="M40.5,3.71428571 L40.5,0.285714286" id="Line"></path>
                <path d="M43.5,3.71428571 L43.5,0.285714286" id="Line"></path>
                <path d="M46.5,3.71428571 L46.5,0.285714286" id="Line"></path>
                <path d="M49.5,3.71428571 L49.5,0.285714286" id="Line"></path>
                <path d="M55.5,3.71428571 L55.5,0.285714286" id="Line-Copy-2"></path>
                <path d="M58.5,3.71428571 L58.5,0.285714286" id="Line-Copy-2"></path>
                <path d="M52.5,3.71428571 L52.5,0.285714286" id="Line-Copy-2"></path>
            </g>
        </g>
    </g>
</svg>