<?xml version="1.0" encoding="UTF-8" standalone="no"?>
<svg width="95px" height="95px" viewBox="0 0 95 95" version="1.1" xmlns="http://www.w3.org/2000/svg" xmlns:xlink="http://www.w3.org/1999/xlink">
    <!-- Generator: Sketch 40 (33762) - http://www.bohemiancoding.com/sketch -->
    <title>Cat02-Bricolage et Jardin</title>
    <desc>Created with Sketch.</desc>
    <defs></defs>
    <g id="Symbols" stroke="none" stroke-width="1" fill="none" fill-rule="evenodd">
        <g id="Cat02-Bricolage-et-Jardin" stroke="#15153D">
            <g id="Pelle" transform="translate(51.000000, 18.000000)">
                <path d="M11.3225806,33.0685917 C5.3713807,32.8168522 5.63997136e-07,31.5249407 0,29.1928571 C-3.08345434e-06,16.4430173 7.83870968,7.8318138e-16 13.5,0 C19.1612903,-7.83181412e-16 27,16.4390243 27,29.1928571 C27,31.5249408 21.6286196,32.8168524 15.6774194,33.0685918 L15.6774194,27.45 C15.6774194,26.2518632 14.7025555,25.2714286 13.5,25.2714286 C12.2890605,25.2714286 11.3225806,26.2468082 11.3225806,27.45 L11.3225806,33.0685917 Z" id="Combined-Shape"></path>
                <rect id="Rectangle-181" x="11.3225806" y="25.2714286" width="4.35483871" height="12.7285714" rx="2.17741935"></rect>
                <path d="M9.30631167,42 L9.30631167,56.641924 C9.30631167,59.043411 11.2560394,61 13.6611504,61 C16.0613675,61 18.0159891,59.0488229 18.0159891,56.641924 L18.0159891,42 L9.30631167,42 Z" id="Combined-Shape"></path>
                <g id="Group" transform="translate(2.000000, 27.000000)" stroke-linecap="round">
                    <path d="M0.5,0.5 L0.5,4.5" id="Line"></path>
                    <path d="M3.5,0.5 L3.5,5.5" id="Line"></path>
                    <path d="M6.5,0.5 L6.5,5.5" id="Line"></path>
                    <path d="M16.5,0.5 L16.5,5.5" id="Line" transform="translate(16.500000, 3.000000) scale(-1, 1) translate(-16.500000, -3.000000) "></path>
                    <path d="M19.5,0.5 L19.5,5.5" id="Line" transform="translate(19.500000, 3.000000) scale(-1, 1) translate(-19.500000, -3.000000) "></path>
                    <path d="M22.5,0.5 L22.5,4.5" id="Line" transform="translate(22.500000, 2.500000) scale(-1, 1) translate(-22.500000, -2.500000) "></path>
                </g>
            </g>
            <g id="Marteau" transform="translate(14.000000, 19.000000)">
                <path d="M17,18.3968254 L17,56.4271425 C17,58.6349367 18.790861,60.4270026 21,60.4270026 C23.2046438,60.4270026 25,58.6362042 25,56.4271425 L25,18.3968254 L17,18.3968254 Z M17,4.84126984 L17,1.99330321 C17,0.892432245 17.8867064,-1.42108547e-13 18.9981014,-1.42108547e-13 L23.0018986,-1.42108547e-13 C24.1054196,-1.42108547e-13 25,0.901097925 25,1.99330321 L25,4.84126984 L17,4.84126984 Z" id="Combined-Shape"></path>
                <g id="Group-2" transform="translate(3.000000, 15.000000)" stroke-linecap="round">
                    <path d="M0.5,2.67518137 L0.5,0.726269608" id="Line"></path>
                    <path d="M3.5,2.67518137 L3.5,0.726269608" id="Line"></path>
                    <path d="M6.5,2.67518137 L6.5,0.726269608" id="Line"></path>
                    <path d="M9.5,2.67518137 L9.5,0.726269608" id="Line"></path>
                    <path d="M12.5,2.67518137 L12.5,0.726269608" id="Line"></path>
                    <path d="M15.5,2.67518137 L15.5,0.726269608" id="Line"></path>
                    <path d="M18.5,2.67518137 L18.5,0.726269608" id="Line"></path>
                    <path d="M21.5,2.67518137 L21.5,0.726269608" id="Line"></path>
                    <path d="M24.5,2.67518137 L24.5,0.726269608" id="Line"></path>
                </g>
                <path d="M31.0634921,4.84126984 L9.68629496,4.84126984 C8.58789683,8.9977492 4.72466209,12.1523484 1.86256566e-12,12.5458558 L0,15.3884083 C0,17.0475087 1.34420165,18.3968254 3.00235843,18.3968254 L31.0634921,18.3968254 L31.0634921,4.84126984 Z" id="Combined-Shape" stroke-linecap="round" stroke-linejoin="round"></path>
                <rect id="Rectangle-183" transform="translate(33.000000, 11.288190) rotate(-90.000000) translate(-33.000000, -11.288190) " x="24.3417051" y="9.35168239" width="17.3165899" height="3.87301587" rx="1.93650794"></rect>
            </g>
            <rect id="Rectangle-183" x="57.9677419" y="56.3428571" width="13.0645161" height="3.65714286" rx="1.82857143"></rect>
        </g>
    </g>
</svg>