<?xml version="1.0" encoding="UTF-8" standalone="no"?>
<svg width="95px" height="95px" viewBox="0 0 95 95" version="1.1" xmlns="http://www.w3.org/2000/svg" xmlns:xlink="http://www.w3.org/1999/xlink">
    <!-- Generator: Sketch 40 (33762) - http://www.bohemiancoding.com/sketch -->
    <title>Cat07-Gastronomie</title>
    <desc>Created with Sketch.</desc>
    <defs></defs>
    <g id="Symbols" stroke="none" stroke-width="1" fill="none" fill-rule="evenodd">
        <g id="Cat07-Gastronomie">
            <g id="Group-4" transform="translate(17.000000, 8.000000)">
                <g id="Group-3">
                    <g id="Group" transform="translate(0.000000, 4.348931)">
                        <g id="Page-1">
                            <path d="M34,38.3619335 C31.9537575,35.953403 28.8601721,34.6362359 24.9313074,34.6362359 C23.0399696,34.6362359 20.9003149,35.7043479 19.4792309,37.3571717 C19.1896234,37.6941046 18.8868258,38.0460895 18.5731321,38.4108107 C17.6223019,37.3594874 16.9714018,36.6474127 16.7729777,36.4471055 C15.2641512,34.9233814 13.1118799,34.3184074 10.3758057,34.6495511 C7.54051948,34.9922732 5.12157987,36.2774812 3.38164086,38.3662337 C1.53331409,40.5846648 0.556103777,43.6407968 0.556103777,47.2046438 C0.556103777,51.0955821 2.0230662,53.8182548 3.63913348,55.6360715 C2.66020273,56.7609179 2.06263634,57.4469411 2.03740321,57.4764662 C1.36069654,58.2528013 1.43639593,59.43554 2.20543291,60.1180897 C2.97389642,60.8000604 4.14551653,60.7242215 4.82164971,59.9478864 C4.84745633,59.9177825 5.47197629,59.2004975 6.4899037,58.030495 C8.60604574,59.3475438 11.10814,60.1047744 13.4576885,60.1047744 L24.5602657,60.1047744 C26.6179127,60.1047744 28.8877475,59.2676525 30.9293371,57.8000839 C31.7884105,58.762832 32.5563005,59.6242687 33.1917166,60.3380802 C33.418708,60.5926864 33.6989488,60.7697704 34,60.867681 L34,55.6495694 C33.8914803,55.5278917 33.7793064,55.4021248 33.6636908,55.2725081 C33.778665,55.1368629 33.8907836,54.9997324 34,54.8612201 L34,38.3619335 Z" id="Combined-Shape" stroke="#15153D"></path>
                            <path d="M40.2492166,18.768598 C36.5844244,20.2515376 34,23.8436117 34,28.0393857 L34,68.6156726 C34,70.259566 35.3403819,71.6105284 36.9938268,71.6105284 L51.0036663,71.6105284 C52.6543495,71.6105284 53.9974931,70.2696858 53.9974931,68.6156726 L53.9974931,28.0393857 C53.9974931,23.8431514 51.4126051,20.2515541 47.7482765,18.7686895 L47.7482765,0.185962081 L40.2492166,0.185962081 L40.2492166,18.768598 Z" id="Combined-Shape" stroke="#15153D"></path>
                            <ellipse id="Oval-44" fill="#15153D" cx="21.8202233" cy="44.8837434" rx="0.909175972" ry="0.90697862"></ellipse>
                            <ellipse id="Oval-44" fill="#15153D" cx="14.5468155" cy="37.6279145" rx="0.909175972" ry="0.90697862"></ellipse>
                            <ellipse id="Oval-44" fill="#15153D" cx="7.27340777" cy="38.5348931" rx="0.909175972" ry="0.90697862"></ellipse>
                            <ellipse id="Oval-44" fill="#15153D" cx="29.0936311" cy="36.7209359" rx="0.909175972" ry="0.90697862"></ellipse>
                            <ellipse id="Oval-44" fill="#15153D" cx="12.7284636" cy="47.6046793" rx="0.909175972" ry="0.90697862"></ellipse>
                            <ellipse id="Oval-44" fill="#15153D" cx="32.730335" cy="55.7674869" rx="0.909175972" ry="0.90697862"></ellipse>
                            <ellipse id="Oval-44" fill="#15153D" cx="32.730335" cy="42.1628076" rx="0.909175972" ry="0.90697862"></ellipse>
                            <ellipse id="Oval-44" fill="#15153D" cx="18.1835194" cy="43.0697862" rx="0.909175972" ry="0.90697862"></ellipse>
                            <ellipse id="Oval-44" fill="#15153D" cx="2.72752791" cy="41.255829" rx="0.909175972" ry="0.90697862"></ellipse>
                            <ellipse id="Oval-44" fill="#15153D" cx="10.9101117" cy="58.4884228" rx="0.909175972" ry="0.90697862"></ellipse>
                            <ellipse id="Oval-44" fill="#15153D" cx="23.6385753" cy="56.6744655" rx="0.909175972" ry="0.90697862"></ellipse>
                            <ellipse id="Oval-44" fill="#15153D" cx="25.4569272" cy="50.3256152" rx="0.909175972" ry="0.90697862"></ellipse>
                            <ellipse id="Oval-44" fill="#15153D" cx="2.72752791" cy="46.6977007" rx="0.909175972" ry="0.90697862"></ellipse>
                            <ellipse id="Oval-44" fill="#15153D" cx="19.0926954" cy="59.3954014" rx="0.909175972" ry="0.90697862"></ellipse>
                            <ellipse id="Oval-44" fill="#15153D" cx="5.45505583" cy="55.7674869" rx="0.909175972" ry="0.90697862"></ellipse>
                            <ellipse id="Oval-44" fill="#15153D" cx="16.3651675" cy="57.5814441" rx="0.909175972" ry="0.90697862"></ellipse>
                            <ellipse id="Oval-44" fill="#15153D" cx="29.0936311" cy="57.5814441" rx="0.909175972" ry="0.90697862"></ellipse>
                            <ellipse id="Oval-44" fill="#15153D" cx="9.09175972" cy="53.046551" rx="0.909175972" ry="0.90697862"></ellipse>
                            <ellipse id="Oval-44" fill="#15153D" cx="23.6385753" cy="37.6279145" rx="0.909175972" ry="0.90697862"></ellipse>
                            <path d="M8.98454269,55.1619339 C10.3941571,55.9214803 11.9953139,56.3620403 13.4576885,56.3620403 L24.5602657,56.3620403 C25.7410615,56.3620403 27.1191345,55.8624302 28.4283898,54.9952042 C25.2335315,51.4163052 21.490426,47.2266429 18.6310536,44.0402533 C15.4189909,47.7557781 11.7383947,51.9940699 8.98454269,55.1619339 L8.98454269,55.1619339 Z" id="Path" stroke="#15153D"></path>
                            <path d="M10.816812,38.3650758 C8.93235599,38.5931713 7.3426688,39.4262408 6.21864755,40.7751303 C4.93978664,42.3104328 4.26307997,44.5340742 4.26307997,47.2046438 C4.26307997,49.7125362 5.11125723,51.5245637 6.11370067,52.7900884 C8.95586868,49.5214918 12.8153906,45.0759457 16.1220776,41.2504257 C15.0605657,40.0740551 14.3431419,39.2867205 14.1515995,39.0933604 C13.631453,38.5688566 12.8308746,38.304289 11.7642014,38.304289 C11.468859,38.304289 11.1528714,38.3245513 10.816812,38.3650758 Z" id="Path" stroke="#15153D"></path>
                            <path d="M21.0832551,41.1994805 C24.0831301,44.5404424 28.0653768,48.9975669 31.1552883,52.4606814 C32.4157979,50.8420141 33.1183111,49.0178292 33.1183111,47.2978504 C33.1183111,44.4952864 32.4278409,42.2247523 31.1225999,40.7317111 C29.75657,39.1703571 27.6736898,38.378391 24.9313074,38.378391 C24.3601211,38.378391 23.1821927,38.759901 22.2795348,39.8100664 C21.9016114,40.2494686 21.5013222,40.7143434 21.0832551,41.1994805 L21.0832551,41.1994805 Z" id="Path" stroke="#15153D"></path>
                            <path d="M3.63913348,55.6363609 L6.11370067,52.7903778" id="Stroke-3" stroke="#15153D"></path>
                            <path d="M6.49001839,58.0306108 L8.98465739,55.1620497" id="Stroke-5" stroke="#15153D"></path>
                            <path d="M18.631111,44.0400797 L21.0833124,41.1993068" id="Stroke-7" stroke="#15153D"></path>
                            <path d="M16.122135,41.2503678 L18.572616,38.4107528" id="Stroke-9" stroke="#15153D"></path>
                            <path d="M28.4281604,54.9952621 L30.9291077,57.8001418" id="Stroke-11" stroke="#15153D"></path>
                            <path d="M31.1555177,52.4607393 L33.6639202,55.2719871" id="Stroke-13" stroke="#15153D"></path>
                        </g>
                    </g>
                    <g id="Group-2" transform="translate(39.000000, 0.000000)" stroke="#15153D">
                        <rect id="Rectangle-48" x="4.47249673" y="37.4128681" width="10.5249964" height="22.6744655"></rect>
                        <path d="M0.262498184,4.5 L9.73499491,4.5" id="Line" stroke-linecap="round"></path>
                        <rect id="Rectangle-49" x="2.36749746" y="0" width="5.26249818" height="4.5348931" rx="1"></rect>
                    </g>
                </g>
            </g>
            <g id="Group" transform="translate(52.000000, 80.000000)" stroke="#15153D" stroke-linecap="round">
                <path d="M1.5,3.71428571 L1.5,0.285714286" id="Line"></path>
                <path d="M4.5,3.71428571 L4.5,0.285714286" id="Line"></path>
                <path d="M7.5,3.71428571 L7.5,0.285714286" id="Line"></path>
                <path d="M10.5,3.71428571 L10.5,0.285714286" id="Line"></path>
                <path d="M13.5,3.71428571 L13.5,0.285714286" id="Line"></path>
                <path d="M16.5,3.71428571 L16.5,0.285714286" id="Line"></path>
            </g>
        </g>
    </g>
</svg>