<?xml version="1.0" encoding="UTF-8" standalone="no"?>
<svg width="95px" height="95px" viewBox="0 0 95 95" version="1.1" xmlns="http://www.w3.org/2000/svg" xmlns:xlink="http://www.w3.org/1999/xlink">
    <!-- Generator: Sketch 40 (33762) - http://www.bohemiancoding.com/sketch -->
    <title>Cat01-BeautéBienEtre</title>
    <desc>Created with Sketch.</desc>
    <defs></defs>
    <g id="Symbols" stroke="none" stroke-width="1" fill="none" fill-rule="evenodd">
        <g id="Cat01-BeautéBienEtre" stroke="#15153D">
            <g id="Group-2" transform="translate(30.000000, 12.000000)">
                <path d="M21.8035714,39.0980392 L21.8035714,30.9057126 C21.8035714,30.3589839 21.359704,29.9019608 20.8121657,29.9019608 L1.65211999,29.9019608 C1.10231291,29.9019608 0.660714286,30.3513558 0.660714286,30.9057126 L0.660714286,62.0496763 C0.660714286,63.1627673 1.55978466,64.0588235 2.66884418,64.0588235 L17.1785714,64.0588235 L17.1785714,42.0957189 C17.1785714,40.4401461 18.5253954,39.0980392 20.1782531,39.0980392 L21.8035714,39.0980392 Z" id="Combined-Shape" stroke-linecap="round" stroke-linejoin="round"></path>
                <rect id="Rectangle-23" transform="translate(27.089286, 53.549020) rotate(-360.000000) translate(-27.089286, -53.549020) " x="17.1785714" y="39.0980392" width="19.8214286" height="28.9019608" rx="1"></rect>
                <path d="M3.96428571,16.2306861 C3.96428571,15.074516 5.05682677,14.1372549 6.39723747,14.1372549 L16.0670482,14.1372549 C17.4107304,14.1372549 18.5,15.076198 18.5,16.2306861 L18.5,29.9019608 L3.96428571,29.9019608 L3.96428571,16.2306861" id="Rectangle-21-Copy" stroke-linecap="round" stroke-linejoin="round" transform="translate(11.232143, 22.019608) rotate(-360.000000) translate(-11.232143, -22.019608) "></path>
                <path d="M6.60714286,13.9434804 C6.67612591,11.0090813 6.33121065,1.05516252 8.47073043,1.05516252 C10.6112954,1.05516252 15.8571429,6.92514826 15.8571429,13.9434804 L6.60714286,13.9434804 Z" id="Page-1" transform="translate(11.232143, 7.499321) rotate(-360.000000) translate(-11.232143, -7.499321) "></path>
                <g id="Group" transform="translate(8.500000, 0.611682)">
                    <path d="M0.5,12.8883181 L0.5,0.888317883" id="Line" stroke-linecap="round"></path>
                    <path d="M3.5,12.8883181 L3.5,2.88831787" id="Line"></path>
                </g>
            </g>
        </g>
    </g>
</svg>