<?xml version="1.0" encoding="UTF-8" standalone="no"?>
<svg width="95px" height="95px" viewBox="0 0 95 95" version="1.1" xmlns="http://www.w3.org/2000/svg" xmlns:xlink="http://www.w3.org/1999/xlink">
    <!-- Generator: Sketch 40 (33762) - http://www.bohemiancoding.com/sketch -->
    <title>Cat04-Cuisine</title>
    <desc>Created with Sketch.</desc>
    <defs></defs>
    <g id="Symbols" stroke="none" stroke-width="1" fill="none" fill-rule="evenodd">
        <g id="Cat04-Cuisine" stroke="#15153D">
            <g id="Couteau" transform="translate(79.711345, 48.477734) scale(-1, 1) translate(-79.711345, -48.477734) translate(75.211345, 21.977734)">
                <path d="M3.14131194,31.8133596 L8.07765963,31.8133596 L8.07765946,49.6666134 C8.07765945,51.031833 6.98212393,52.1385622 5.60948569,52.1385622 L5.60948569,52.1385622 C4.24635097,52.1385622 3.14131194,51.0313569 3.14131194,49.6666134 L3.14131194,31.8133596 Z" id="Rectangle-34-Copy"></path>
                <path d="M8.07765929,31.8133596 L8.07765929,0 C8.07765929,0 -2.92488543e-16,5.66444981 -2.92488543e-16,19.2591293 L-2.92488548e-16,31.8133596 L8.07765929,31.8133596 Z" id="Path-320" stroke-linecap="round" stroke-linejoin="round"></path>
            </g>
            <g id="Fourchette" transform="translate(17.962765, 47.594030) scale(-1, 1) translate(-17.962765, -47.594030) translate(10.462765, 21.094030)">
                <path d="M5,33.5021717 C5,32.1202604 6.10623547,31 7.49228012,31 L7.49228012,31 C8.86872843,31 9.98456025,32.1134803 9.98456025,33.5021716 L9.98456025,49.7651579 C9.98456025,51.1470691 8.87832477,52.2673297 7.49228012,52.2673299 L7.49228012,52.2673299 C6.11583182,52.2673302 5,51.15385 5,49.7651587 L5,33.5021717 Z" id="Rectangle-34"></path>
                <path d="M7.5,30.9527808 L7.5,24" id="Line" stroke-linecap="square"></path>
                <rect id="Rectangle-36" x="1.46276548" y="12.9059705" width="11.9986351" height="11" rx="5"></rect>
                <path d="M13.4627655,12.9059705 L13.4627655,0.905970498" id="Line" stroke-linecap="round"></path>
                <path d="M1.46276548,12.9059705 L1.46276548,0.905970498" id="Line-Copy" stroke-linecap="round"></path>
                <path d="M7.46276548,9.9059705 L7.46276548,0.905970498" id="Line-Copy-2" stroke-linecap="round"></path>
            </g>
            <g id="Assiette" transform="translate(27.000000, 27.000000)">
                <path d="M22.0094366,44.6522018 C33.9653707,44.6522018 43.6575702,34.738507 43.6575702,22.5093447 C43.6575702,10.2801824 33.9653707,0.366487556 22.0094366,0.366487556 C10.0535026,0.366487556 0.361303029,10.2801824 0.361303029,22.5093447 C0.361303029,34.738507 10.0535026,44.6522018 22.0094366,44.6522018 Z M22.0424287,37.6930145 C30.2225604,37.6930145 36.8538675,30.9101626 36.8538675,22.5430907 C36.8538675,14.1760189 30.2225604,7.39316699 22.0424287,7.39316699 C13.8622969,7.39316699 7.2309899,14.1760189 7.2309899,22.5430907 C7.2309899,30.9101626 13.8622969,37.6930145 22.0424287,37.6930145 Z" id="Combined-Shape"></path>
                <g id="Group" transform="translate(11.000000, 29.000000)" stroke-linecap="round">
                    <path d="M0.5,3.5 L0.5,0.5" id="Line"></path>
                    <path d="M3.5,6.5 L3.5,2.5" id="Line-Copy-2"></path>
                    <path d="M6.5,7.5 L6.5,3.5" id="Line-Copy-3"></path>
                    <path d="M9.5,8.5 L9.5,4.5" id="Line-Copy-4"></path>
                    <path d="M12.5,8.5 L12.5,4.5" id="Line-Copy-5"></path>
                    <path d="M15.5,7.5 L15.5,3.5" id="Line-Copy-6"></path>
                    <path d="M18.5,6.5 L18.5,2.5" id="Line"></path>
                    <path d="M21.5,4 L21.5,0.5" id="Line"></path>
                </g>
            </g>
        </g>
    </g>
</svg>