<?xml version="1.0" encoding="UTF-8" standalone="no"?>
<svg width="95px" height="95px" viewBox="0 0 95 95" version="1.1" xmlns="http://www.w3.org/2000/svg" xmlns:xlink="http://www.w3.org/1999/xlink">
    <!-- Generator: Sketch 40 (33762) - http://www.bohemiancoding.com/sketch -->
    <title>Cat08-High-Tech</title>
    <desc>Created with Sketch.</desc>
    <defs></defs>
    <g id="Symbols" stroke="none" stroke-width="1" fill="none" fill-rule="evenodd">
        <g id="Cat08-High-Tech">
            <g id="Group-4" transform="translate(15.000000, 19.000000)">
                <g id="Ordinateur" transform="translate(0.067887, 0.451276)" stroke="#15153D">
                    <path d="M25.8321131,52.8390467 C25.8321131,51.7879241 26.685002,50.9358209 27.7262089,50.9358209 L49.1380177,50.9358209 C50.1840979,50.9358209 51.0321134,51.7805959 51.0321133,52.8390467 L51.0321133,52.8390467 C51.0321132,53.8901693 50.1792242,54.7422725 49.1380173,54.7422725 L27.7262089,54.7422725 C26.6801287,54.7422725 25.8321131,53.8974975 25.8321131,52.8390467 L25.8321131,52.8390467 Z" id="Rectangle-70"></path>
                    <rect id="Rectangle-71" x="35.7321131" y="46.2238911" width="6.3" height="4.71192981"></rect>
                    <path d="M16.9901695,46.2238911 L64.3842935,46.2238911 C66.6025846,46.2238911 68.3936617,44.4302734 68.3936617,42.2177339 L68.3936617,4.40875974 C68.3936617,2.19885137 66.5986064,0.40260256 64.3842935,0.40260256 L12.0093682,0.40260256 C9.79107705,0.40260256 8,2.19622022 8,4.40875974 L8,24.0552943 L13.9950855,24.0552943 C15.6492248,24.0552943 16.9901695,25.3949536 16.9901695,27.0491082 L16.9901695,46.2238911 Z" id="Combined-Shape"></path>
                    <rect id="Rectangle-53" x="0.0187409674" y="24.0552943" width="16.9714286" height="32.1295064" rx="3"></rect>
                    <path d="M8.2821131,6.21001445 L67.7093798,6.21001445" id="Line" stroke-linecap="square"></path>
                    <path d="M17.4321131,38.6616274 L67.7093798,38.6616274" id="Line-Copy" stroke-linecap="square"></path>
                </g>
                <g id="Téléphone" transform="translate(0.000000, 25.649002)">
                    <circle id="Oval-75" fill="#15153D" cx="8.71428571" cy="1.58294931" r="1"></circle>
                    <path d="M0.385714286,3.5 L16.2,3.5" id="Line" stroke="#15153D" stroke-linecap="square"></path>
                    <path d="M0.385714286,24.5 L16.2,24.5" id="Line-Copy-7" stroke="#15153D" stroke-linecap="square"></path>
                </g>
            </g>
            <g id="Group-3" transform="translate(16.000000, 65.000000)" stroke="#15153D" stroke-linecap="round">
                <path d="M1.5,3.71428571 L1.5,0.285714286" id="Line"></path>
                <path d="M4.5,3.71428571 L4.5,0.285714286" id="Line"></path>
                <path d="M7.5,3.71428571 L7.5,0.285714286" id="Line"></path>
                <path d="M10.5,3.71428571 L10.5,0.285714286" id="Line"></path>
                <path d="M9.21428571,8 L5.78571429,8" id="Line-Copy-8"></path>
                <path d="M13.5,3.71428571 L13.5,0.285714286" id="Line"></path>
            </g>
            <g id="Group" transform="translate(34.000000, 53.000000)" stroke="#15153D" stroke-linecap="round">
                <path d="M1.5,4.64285714 L1.5,0.357142857" id="Line"></path>
                <path d="M4.5,4.64285714 L4.5,0.357142857" id="Line"></path>
                <path d="M7.5,4.64285714 L7.5,0.357142857" id="Line"></path>
                <path d="M10.5,4.64285714 L10.5,0.357142857" id="Line"></path>
                <path d="M13.5,4.64285714 L13.5,0.357142857" id="Line"></path>
                <path d="M16.5,4.64285714 L16.5,0.357142857" id="Line"></path>
                <path d="M19.5,4.64285714 L19.5,0.357142857" id="Line-Copy-2"></path>
                <path d="M22.5,4.64285714 L22.5,0.357142857" id="Line-Copy-3"></path>
                <path d="M25.5,4.64285714 L25.5,0.357142857" id="Line-Copy-4"></path>
                <path d="M28.5,4.64285714 L28.5,0.357142857" id="Line-Copy-5"></path>
                <path d="M31.5,4.64285714 L31.5,0.357142857" id="Line-Copy-6"></path>
                <path d="M34.5,4.64285714 L34.5,0.357142857" id="Line"></path>
                <path d="M37.5,4.64285714 L37.5,0.357142857" id="Line"></path>
                <path d="M40.5,4.64285714 L40.5,0.357142857" id="Line"></path>
                <path d="M43.5,4.64285714 L43.5,0.357142857" id="Line"></path>
                <path d="M46.5,4.64285714 L46.5,0.357142857" id="Line"></path>
            </g>
        </g>
    </g>
</svg>