<?xml version="1.0" encoding="UTF-8" standalone="no"?>
<svg width="95px" height="95px" viewBox="0 0 95 95" version="1.1" xmlns="http://www.w3.org/2000/svg" xmlns:xlink="http://www.w3.org/1999/xlink">
    <!-- Generator: Sketch 40 (33762) - http://www.bohemiancoding.com/sketch -->
    <title>Cat09-Intérieur et décoration</title>
    <desc>Created with Sketch.</desc>
    <defs></defs>
    <g id="Symbols" stroke="none" stroke-width="1" fill="none" fill-rule="evenodd">
        <g id="Cat09-Intérieur-et-décoration" stroke="#15153D">
            <g id="Canapé-lampe" transform="translate(11.000000, 14.000000)">
                <g id="Canapé" transform="translate(0.000000, 25.378788)">
                    <path d="M50.6666667,24.3636364 L10.1333333,24.3636364 L10.1333333,32.6931214 C10.1333333,33.6794863 9.26930877,34.4827891 8.17369547,34.5141979 C8.19902814,34.5148324 8.22443879,34.5151515 8.2499237,34.5151515 L52.8058067,34.5151515 L52.6929432,34.5151515 C51.5738616,34.5151515 50.6666667,33.6994064 50.6666667,32.6923755 L50.6666667,24.3636364 Z" id="Combined-Shape"></path>
                    <path d="M55.7333333,9.99753111 C58.5315761,9.99753111 60.8,12.0219029 60.8,14.5423419 L60.8,16.8685582 L60.8,32.6931214 C60.8,33.6994008 59.9007343,34.5151515 58.7737235,34.5151515 L52.6929432,34.5151515 C51.5738616,34.5151515 50.6666667,33.6994064 50.6666667,32.6923755 L50.6666667,14.5373226 C50.6666667,12.030065 52.9407845,9.99753111 55.7333333,9.99753111 L55.7333333,9.99753111" id="Rectangle-145-Copy-2"></path>
                    <path d="M5.06666667,9.99753111 C7.8649094,9.99753111 10.1333333,12.0219029 10.1333333,14.5423419 L10.1333333,16.8685582 L10.1333333,32.6931214 C10.1333333,33.6994008 9.2340676,34.5151515 8.10705682,34.5151515 L2.02627652,34.5151515 C0.907194898,34.5151515 1.8000416e-15,33.6994064 1.8000416e-15,32.6923755 L0,14.5373226 C0,12.030065 2.2741178,9.99753111 5.06666667,9.99753111 L5.06666667,9.99753111" id="Rectangle-145-Copy"></path>
                    <path d="M50.6666667,24.3636364 L10.1333333,24.3636364 L10.1333333,16.8685582 L10.1333333,14.5423419 C10.1333333,12.0219029 7.8649094,9.99753111 5.06666667,9.99753111 L5.06666667,7.99443408 C5.06666667,3.57923005 8.64963501,0 13.0669922,0 L47.7330078,0 C52.1514656,0 55.7333333,3.58184727 55.7333333,7.99443408 L55.7333333,9.99753111 C52.9407845,9.99753111 50.6666667,12.030065 50.6666667,14.5373226 L50.6666667,24.3636364 Z" id="Combined-Shape"></path>
                    <path d="M13.68,20.2878788 L13.68,24.3484848" id="Line" stroke-linecap="round"></path>
                    <path d="M19.76,20.2878788 L19.76,24.3484848" id="Line-Copy-3" stroke-linecap="round"></path>
                    <path d="M16.72,20.2878788 L16.72,24.3484848" id="Line-Copy-2" stroke-linecap="round"></path>
                    <path d="M22.8,20.2878788 L22.8,24.3484848" id="Line-Copy-4" stroke-linecap="round"></path>
                    <path d="M25.84,20.2878788 L25.84,24.3484848" id="Line" stroke-linecap="round"></path>
                    <path d="M31.92,20.2878788 L31.92,24.3484848" id="Line-Copy-3" stroke-linecap="round"></path>
                    <path d="M28.88,20.2878788 L28.88,24.3484848" id="Line-Copy-2" stroke-linecap="round"></path>
                    <path d="M34.96,20.2878788 L34.96,24.3484848" id="Line-Copy-4" stroke-linecap="round"></path>
                    <path d="M38,20.2878788 L38,24.3484848" id="Line" stroke-linecap="round"></path>
                    <path d="M44.08,20.2878788 L44.08,24.3484848" id="Line-Copy-3" stroke-linecap="round"></path>
                    <path d="M41.04,20.2878788 L41.04,24.3484848" id="Line-Copy-2" stroke-linecap="round"></path>
                    <path d="M47.12,20.2878788 L47.12,24.3484848" id="Line-Copy-4" stroke-linecap="round"></path>
                </g>
                <g id="Lampe" transform="translate(53.706667, 0.000000)">
                    <rect id="Rectangle-70" x="6.08" y="63.9545455" width="10.1333333" height="3.04545455" rx="1.52272727"></rect>
                    <path d="M11.1466667,63.3289284 L11.1466667,17.2575758" id="Line" stroke-linecap="square"></path>
                    <path d="M18.24,22.3333333 L18.24,17.2575758" id="Line-Copy" stroke-linecap="square"></path>
                    <path d="M4.76863932,0.955398695 C4.93323528,0.427746566 5.51386891,1.00456592e-13 6.06177057,9.62134708e-14 L16.2315636,1.74554239e-14 C16.7811443,1.31992996e-14 17.3621886,0.434445612 17.5246948,0.955398695 L21.9953064,15.2870255 C22.1599024,15.8146777 21.848016,16.2424242 21.2921263,16.2424242 L1.00120742,16.2424242 C0.44825583,16.2424242 0.135521094,15.8079786 0.298027354,15.2870255 L4.76863932,0.955398695 Z" id="Rectangle-71"></path>
                    <ellipse id="Oval-76" cx="18.24" cy="23.504662" rx="1.01333333" ry="0.984595115"></ellipse>
                </g>
            </g>
        </g>
    </g>
</svg>