<?xml version="1.0" encoding="UTF-8" standalone="no"?>
<svg width="95px" height="95px" viewBox="0 0 95 95" version="1.1" xmlns="http://www.w3.org/2000/svg" xmlns:xlink="http://www.w3.org/1999/xlink">
    <!-- Generator: Sketch 40 (33762) - http://www.bohemiancoding.com/sketch -->
    <title>Cat12-Maroquinerie</title>
    <desc>Created with Sketch.</desc>
    <defs></defs>
    <g id="Symbols" stroke="none" stroke-width="1" fill="none" fill-rule="evenodd">
        <g id="Cat12-Maroquinerie" stroke="#15153D">
            <g id="Group-3" transform="translate(48.000000, 45.000000) rotate(-360.000000) translate(-48.000000, -45.000000) translate(18.000000, 15.000000)">
                <g id="Group-2" transform="translate(0.179670, 0.436848)">
                    <path d="M0.842262947,15.7001521 C0.842262947,14.045176 2.1875835,12.7035527 3.84091583,12.7035527 L55.1174904,12.7035527 C56.7736007,12.7035527 58.1161433,14.0536011 58.1161433,15.7001521 L58.1161433,55.6480095 C58.1161433,57.3029857 56.7708228,58.6446089 55.1174904,58.6446089 L3.84091583,58.6446089 C2.18480557,58.6446089 0.842262947,57.2945606 0.842262947,55.6480095 L0.842262947,15.7001521 Z" id="Rectangle-270"></path>
                    <path d="M23.8203304,7.57120873 C23.8203304,5.90990472 25.1619532,4.56315173 26.8174824,4.56315173 L32.8231783,4.56315173 C34.4784597,4.56315173 35.8203304,5.90737353 35.8203304,7.57120873 L35.8203304,12.7035536 L23.8203304,12.7035536 L23.8203304,7.57120873 Z" id="Rectangle-271"></path>
                    <path d="M19.8203303,6.63335217 C19.8203303,3.28087303 22.5384338,0.563151723 25.8888532,0.563151723 L33.751808,0.563151723 C37.1033606,0.563151723 39.8203307,3.28769465 39.8203306,6.63335217 L39.8203303,12.7035526 L19.8203303,12.7035526 L19.8203303,6.63335217 Z" id="Rectangle-271"></path>
                    <path d="M6.98644253,12.6985251 C6.98644102,17.0348817 4.8796703,19.20306 0.666125835,19.20306" id="Path-316"></path>
                    <path d="M58.5406194,12.268561 C58.5406179,16.6049176 56.4338472,18.7730959 52.2203027,18.7730959" id="Path-316-Copy-2" transform="translate(55.380461, 15.520828) scale(-1, 1) translate(-55.380461, -15.520828) "></path>
                    <path d="M7.16257964,52.1419305 C7.16257814,56.4782871 5.05580741,58.6464655 0.842262947,58.6464655" id="Path-316-Copy" transform="translate(4.002421, 55.394198) rotate(-90.000000) translate(-4.002421, -55.394198) "></path>
                    <path d="M58.3644823,52.5718946 C58.3644808,56.9082512 56.25771,59.0764296 52.0441656,59.0764296" id="Path-316-Copy-3" transform="translate(55.204324, 55.824162) scale(-1, 1) rotate(-90.000000) translate(-55.204324, -55.824162) "></path>
                </g>
                <path d="M38.2323944,19.4030121 L39.0976689,18.2670583 C39.4332164,17.8265433 40.1514251,17.4694352 40.7044598,17.4694352 L40.9108997,17.4694352 C41.4627582,17.4694352 42.1810685,17.824083 42.5194886,18.2670583 L43.3873239,19.4030121 L43.3873239,23.7305411 L43.3873239,25.0405995 C43.3873239,26.1477342 42.4894037,27.0452442 41.3795328,27.0452442 L40.2401855,27.0452442 C39.1313131,27.0452442 38.2323944,26.1536264 38.2323944,25.0373377 L38.2323944,19.4030121 Z" id="Rectangle-24-Copy" stroke-linecap="round" stroke-linejoin="round"></path>
                <path d="M40.8098592,17.5 L40.8098592,13.1353733" id="Line-Copy-14" stroke-linecap="square"></path>
                <path d="M31.4919031,38.9272733 L35.8356176,39.6213819 C36.2316874,39.6846723 36.6039881,39.411286 36.6668728,39.0107084 L37.6494563,32.7516276 C37.7113138,32.3575939 37.4421318,31.9749932 37.045927,31.9116812 L25.4818286,30.0637836 C25.0857589,30.0004932 24.7134582,30.2738794 24.6505734,30.674457 L24.021684,34.6804983 L30.4434864,34.2188394 C30.8437786,34.1900627 31.1910179,34.5012189 31.2180639,34.8990684 L31.4919031,38.9272733 Z" id="Combined-Shape"></path>
                <path d="M18.2920915,36.056734 L29.7002562,33.3994773 C30.0911185,33.3084354 30.4827582,33.5614405 30.5717086,33.9501609 L31.9846529,40.1248425 C32.0750806,40.5200186 31.831397,40.9142072 31.4406679,41.0052181 L20.0325032,43.6624748 C19.6416409,43.7535167 19.2500012,43.5005116 19.1610508,43.1117911 L17.7481065,36.9371096 C17.6576788,36.5419335 17.9013624,36.1477449 18.2920915,36.056734 Z" id="Rectangle-32-Copy" transform="translate(24.866380, 38.530976) rotate(9.000000) translate(-24.866380, -38.530976) "></path>
            </g>
            <g id="Group" transform="translate(27.000000, 69.000000)" stroke-linecap="round">
                <path d="M1.5,4.64285714 L1.5,0.357142857" id="Line"></path>
                <path d="M4.5,4.64285714 L4.5,0.357142857" id="Line"></path>
                <path d="M7.5,4.64285714 L7.5,0.357142857" id="Line"></path>
                <path d="M10.5,4.64285714 L10.5,0.357142857" id="Line"></path>
                <path d="M13.5,4.64285714 L13.5,0.357142857" id="Line"></path>
                <path d="M16.5,4.64285714 L16.5,0.357142857" id="Line-Copy-2"></path>
                <path d="M19.5,4.64285714 L19.5,0.357142857" id="Line-Copy-3"></path>
                <path d="M22.5,4.64285714 L22.5,0.357142857" id="Line-Copy-4"></path>
                <path d="M25.5,4.64285714 L25.5,0.357142857" id="Line-Copy-5"></path>
                <path d="M28.5,4.64285714 L28.5,0.357142857" id="Line-Copy-6"></path>
                <path d="M31.5,4.64285714 L31.5,0.357142857" id="Line"></path>
                <path d="M34.5,4.64285714 L34.5,0.357142857" id="Line"></path>
                <path d="M37.5,4.64285714 L37.5,0.357142857" id="Line"></path>
                <path d="M40.5,4.64285714 L40.5,0.357142857" id="Line"></path>
            </g>
        </g>
    </g>
</svg>