<?xml version="1.0" encoding="UTF-8" standalone="no"?>
<svg width="95px" height="95px" viewBox="0 0 95 95" version="1.1" xmlns="http://www.w3.org/2000/svg" xmlns:xlink="http://www.w3.org/1999/xlink">
    <!-- Generator: Sketch 40 (33762) - http://www.bohemiancoding.com/sketch -->
    <title>Cat13-Mode</title>
    <desc>Created with Sketch.</desc>
    <defs></defs>
    <g id="Symbols" stroke="none" stroke-width="1" fill="none" fill-rule="evenodd">
        <g id="Cat13-Mode" stroke="#15153D">
            <g id="Group" transform="translate(47.500000, 46.500000) rotate(-360.000000) translate(-47.500000, -46.500000) translate(18.000000, 7.000000)">
                <g id="Porte-manteau" transform="translate(19.666667, 0.000000)">
                    <path d="M13.2729767,12.6435764 C15.7981292,12.6435764 17.4005487,11.0481739 17.4005487,8.53407884 C17.4005487,6.01998382 15.3535081,4.42458129 12.8283555,4.42458129 C10.303203,4.42458129 8.45747599,6.01998382 8.45747599,8.53407884 L2.26611797,8.53407884" id="Oval-77" stroke-linecap="round" stroke-linejoin="round" transform="translate(9.833333, 8.534079) rotate(-90.000000) translate(-9.833333, -8.534079) "></path>
                    <polyline id="Path-487" points="7.10542736e-15 19.4166667 9.83333295 16.1666667 20.7592589 19.4166667"></polyline>
                </g>
                <path d="M1.74814815,69.25 L4.87656926,27.5844916 C4.95905667,26.4858928 5.5126626,24.852905 6.27415308,24.0537515 L6.7596294,23.5822878 C7.57208096,22.8385535 9.07714451,21.9162957 10.1038095,21.5289598 L18.5740737,18.3333333 C21.8518514,27.8709895 37.1481498,27.8709895 40.4259276,18.3333333 L48.8985825,21.5289598 C49.9333626,21.9192472 51.3895677,22.8834148 52.1486749,23.6799357 L52.5976168,24.1510044 C53.3578132,24.9486682 54.0410342,26.4871036 54.1234307,27.5844916 L57.2518519,69.25" id="Rectangle-79" stroke-width="2" stroke-linecap="round" stroke-linejoin="round"></path>
                <path d="M49.0297817,70.6329275 L49.0297817,70.6329275 C49.1532507,70.5800894 49.2857633,70.5409465 49.4255288,70.5178774 L56.9637229,69.2736556 C57.8533825,69.1268122 58.7009137,69.6783719 58.8591842,70.518592 C59.016359,71.3529948 58.4210767,72.1486973 57.532903,72.2952954 L49.9947089,73.5395173 C49.6576488,73.595151 49.3266356,73.5505372 49.0368615,73.4279584" id="Rectangle-188" stroke-width="2"></path>
                <path d="M10.1748627,73.2411858 C9.82272082,73.4964737 9.36171827,73.6171353 8.88997864,73.539272 L1.35178452,72.2950502 C0.462124909,72.1482068 -0.132767182,71.3585669 0.0255033667,70.5183468 C0.182678122,69.683944 1.03279101,69.1268122 1.92096466,69.2734103 L1.92096466,69.2734103 L9.45915878,70.5176321 C9.70154406,70.5576392 9.92204949,70.6453595 10.1114049,70.7688164" id="Rectangle-188" stroke-width="2"></path>
                <path d="M48.0457449,35.2352621 L49.0847222,75.6024948 C49.0847222,77.239648 48.6581806,78.5668228 48.1164834,78.5668228 L10.8835166,78.5668228 C10.3487731,78.5668228 9.91527778,77.2408548 9.91527778,75.6024948 L10.9542551,35.2352621" id="Rectangle-79" stroke-width="2" stroke-linecap="round"></path>
                <g id="Rayures" transform="translate(10.925926, 38.916667)" stroke-width="2" stroke-linecap="square">
                    <path d="M0.546296296,1.625 L35.5092593,1.625" id="Line"></path>
                    <path d="M0.546296296,7.04166667 L35.5092593,7.04166667" id="Line"></path>
                    <path d="M3.55271368e-15,12.4583333 L37.1481481,12.4583333" id="Line"></path>
                    <path d="M3.55271368e-15,17.875 L37.1481481,17.875" id="Line"></path>
                    <path d="M3.55271368e-15,23.2916667 L37.6944444,23.2916667" id="Line"></path>
                    <path d="M7.10542736e-15,28.7083333 L37.6944444,28.7083333" id="Line"></path>
                    <path d="M7.10542736e-15,34.125 L37.1481481,34.125" id="Line"></path>
                </g>
            </g>
        </g>
    </g>
</svg>