<?xml version="1.0" encoding="UTF-8" standalone="no"?>
<svg width="95px" height="95px" viewBox="0 0 95 95" version="1.1" xmlns="http://www.w3.org/2000/svg" xmlns:xlink="http://www.w3.org/1999/xlink">
    <!-- Generator: Sketch 40 (33762) - http://www.bohemiancoding.com/sketch -->
    <title>Cat10-Lingerie</title>
    <desc>Created with Sketch.</desc>
    <defs>
        <path d="M29.7569602,1.20792265e-13 L58.6270699,1.20792265e-13 C59.175831,1.20792265e-13 59.6206897,0.457487978 59.6206897,1.00156701 L59.6206897,6.31186583 C59.6206897,6.86501601 59.1808246,7.31343284 58.6151275,7.31343284 L22.7412654,7.31343284" id="path-1"></path>
    </defs>
    <g id="Symbols" stroke="none" stroke-width="1" fill="none" fill-rule="evenodd">
        <g id="Cat10-Lingerie">
            <g id="Group-3" transform="translate(49.500000, 52.000000) rotate(-360.000000) translate(-49.500000, -52.000000) translate(4.000000, 17.000000)">
                <g id="Caleçon" transform="translate(51.275184, 36.757298) rotate(19.000000) translate(-51.275184, -36.757298) translate(17.775184, 13.757298)">
                    <path d="M4.60909286,24.0711048 L0.961154403,37.6853965 C0.817411323,38.221853 1.13300811,38.7680117 1.66466799,38.9104695 L25.9151877,45.4083767 C26.4453518,45.5504338 26.9938648,45.2333204 27.1369849,44.6991891 L33.7320467,20.0860833 L40.284178,44.5389704 C40.4279211,45.0754269 40.9743153,45.3906158 41.5059752,45.248158 L65.7564949,38.7502508 C66.2866591,38.6081938 66.6031286,38.0593091 66.4600085,37.5251778 L58.4243262,7.53560295" id="Combined-Shape" stroke="#15153D" stroke-linecap="round" stroke-linejoin="round"></path>
                    <path d="M46.8537571,15.1562732 C47.5713896,14.1207619 50.1224805,14.522967 50.1224805,17.0977286 C50.1224805,18.8502364 47.7270738,20.4451779 46.9083896,21.0606751 C46.756323,21.1749887 46.6237444,21.2022706 46.503769,21.2022706 C46.3838312,21.2022706 46.2521179,21.1738613 46.099186,21.0606751 C45.2674471,20.4451779 42.8850575,18.8502364 42.8850575,17.0977286 C42.8850575,14.5225536 45.3821555,14.1201982 46.0991861,15.1562732 C46.1559948,15.2383821 46.4751764,15.8517361 46.5037689,15.9491018 C46.5324742,15.8515482 46.7967603,15.23857 46.8537571,15.1562732 Z" id="Page-1-Copy-5" stroke="#15153D" stroke-linecap="round" stroke-linejoin="round"></path>
                    <path d="M59.4054812,24.5592583 C60.1231138,23.523747 62.6742046,23.925952 62.6742046,26.5007136 C62.6742046,28.2532215 60.278798,29.848163 59.4601137,30.4636601 C59.3080471,30.5779737 59.1754685,30.6052557 59.0554931,30.6052557 C58.9355554,30.6052557 58.8038421,30.5768464 58.6509101,30.4636601 C57.8191712,29.848163 55.4367816,28.2532215 55.4367816,26.5007136 C55.4367816,23.9255387 57.9338797,23.5231833 58.6509103,24.5592583 C58.7077189,24.6413672 59.0269006,25.2547212 59.055493,25.3520869 C59.0841983,25.2545333 59.3484844,24.6415551 59.4054812,24.5592583 Z" id="Page-1-Copy-6" stroke="#15153D" stroke-linecap="round" stroke-linejoin="round"></path>
                    <path d="M5.22988506,39.0380271 C5.22988506,36.4628521 7.72698313,36.0604967 8.44401373,37.0965717 C8.50082239,37.1786806 8.82000402,37.7920346 8.84859646,37.8894003 C8.87730176,37.7918467 9.14158789,37.1788685 9.19858465,37.0965717 L9.19858465,37.0965717 C9.9162172,36.0610604 12.4673081,36.4632655 12.4673081,39.0380271 C12.4673081,39.8870815 11.9050569,40.6991519 11.2322544,41.3807765" id="Page-1-Copy-4" stroke="#15153D" stroke-linecap="round" stroke-linejoin="round"></path>
                    <path d="M44.761803,29.7831389 C45.4794356,28.7476276 48.0305265,29.1498326 48.0305265,31.7245942 C48.0305265,33.4771021 45.6351198,35.0720436 44.8164356,35.6875407 C44.664369,35.8018543 44.5317903,35.8291363 44.411815,35.8291363 C44.2918772,35.8291363 44.1601639,35.800727 44.007232,35.6875407 C43.175493,35.0720436 40.7931034,33.4771021 40.7931034,31.7245942 C40.7931034,29.1494193 43.2902015,28.7470639 44.0072321,29.7831389 C44.0640408,29.8652478 44.3832224,30.4786018 44.4118148,30.5759675 C44.4405201,30.4784139 44.7048063,29.8654357 44.761803,29.7831389 Z" id="Page-1-Copy-7" stroke="#15153D" stroke-linecap="round" stroke-linejoin="round"></path>
                    <path d="M25.9342168,17.2458255 C26.6518494,16.2103141 29.2029403,16.6125192 29.2029403,19.1872808 C29.2029403,20.9397886 26.8075336,22.5347301 25.9888494,23.1502273 C25.8367827,23.2645409 25.7042041,23.2918228 25.5842288,23.2918228 C25.464291,23.2918228 25.3325777,23.2634136 25.1796458,23.1502273 C24.3479068,22.5347301 21.9655172,20.9397886 21.9655172,19.1872808 C21.9655172,16.6121058 24.4626153,16.2097504 25.1796459,17.2458255 C25.2364546,17.3279343 25.5556362,17.9412884 25.5842286,18.0386541 C25.6129339,17.9411005 25.8772201,17.3281222 25.9342168,17.2458255 Z" id="Page-1-Copy-2" stroke="#15153D" stroke-linecap="round" stroke-linejoin="round"></path>
                    <path d="M60.1014701,14.9336139 C59.9815324,14.9336139 59.8498191,14.9052046 59.6968872,14.7920184 C58.8651482,14.1765212 56.4827586,12.5815797 56.4827586,10.8290718 C56.4827586,8.93863851 57.3133917,8.20635831 58.3126944,8.36726623" id="Page-1-Copy-8" stroke="#15153D" stroke-linecap="round" stroke-linejoin="round"></path>
                    <path d="M35.4726612,8.13722266 C36.1902938,7.10171133 38.7413847,7.5039164 38.7413847,10.078678 C38.7413847,11.8311858 36.345978,13.4261273 35.5272938,14.0416245 C35.3752271,14.1559381 35.2426485,14.18322 35.1226731,14.18322 C35.0027354,14.18322 34.8710221,14.1548107 34.7180902,14.0416245 C33.8863512,13.4261273 31.5039616,11.8311858 31.5039616,10.078678 C31.5039616,7.50350304 34.0010597,7.10114763 34.7180903,8.13722264 C34.774899,8.21933152 35.0940806,8.83268554 35.122673,8.93005127 C35.1513783,8.83249765 35.4156645,8.21951943 35.4726612,8.13722266 Z" id="Page-1-Copy-3" stroke="#15153D" stroke-linecap="round" stroke-linejoin="round"></path>
                    <path d="M55.7229845,41.4824158 C55.0075439,40.7805782 54.3908046,39.9296976 54.3908046,39.0380271 C54.3908046,36.4628521 56.8879027,36.0604967 57.6049333,37.0965717 C57.6617419,37.1786806 57.9809236,37.7920346 58.009516,37.8894003 C58.0382213,37.7918467 58.3025074,37.1788685 58.3595042,37.0965717 L58.3595042,37.0965717 C59.0771367,36.0610604 61.6282276,36.4632655 61.6282276,39.0380271 C61.6282276,39.3741708 61.5401005,39.7045177 61.3918761,40.0232681" id="Page-1-Copy-9" stroke="#15153D" stroke-linecap="round" stroke-linejoin="round"></path>
                    <path d="M23.8422628,31.8726911 C24.5598954,30.8371798 27.1109863,31.2393849 27.1109863,33.8141465 C27.1109863,35.5666543 24.7155796,37.1615958 23.8968953,37.777093 C23.7448287,37.8914066 23.6122501,37.9186885 23.4922747,37.9186885 C23.372337,37.9186885 23.2406237,37.8902792 23.0876918,37.777093 C22.2559528,37.1615958 19.8735632,35.5666543 19.8735632,33.8141465 C19.8735632,31.2389715 22.3706613,30.8366161 23.0876919,31.8726911 C23.1445006,31.9548 23.4636822,32.568154 23.4922746,32.6655197 C23.5209799,32.5679661 23.785266,31.9549879 23.8422628,31.8726911 Z" id="Page-1-Copy" stroke="#15153D" stroke-linecap="round" stroke-linejoin="round"></path>
                    <mask id="mask-2" fill="white">
                        <use xlink:href="#path-1"></use>
                    </mask>
                    <use id="Rectangle-56" stroke="#15153D" xlink:href="#path-1"></use>
                </g>
                <g id="Culotte" transform="translate(31.182328, 20.797951) rotate(-9.000000) translate(-31.182328, -20.797951) translate(3.182328, 4.297951)" stroke="#15153D">
                    <path d="M7.8591977,3.65671642 C7.8591977,1.63716771 6.09985637,-4.1033843e-13 3.92959885,-4.1033843e-13 C1.75934133,-4.1033843e-13 -3.30513394e-13,1.63716771 -3.30513394e-13,3.65671642" id="Oval-68"></path>
                    <path d="M15.7183954,3.65671642 C15.7183954,1.63716771 13.9590541,-6.92779167e-14 11.7887966,-6.92779167e-14 C9.61853903,-6.92779167e-14 7.8591977,1.63716771 7.8591977,3.65671642" id="Oval-68-Copy"></path>
                    <path d="M23.5775931,3.65671642 C23.5775931,1.63716771 21.8182518,-1.3500312e-13 19.6479943,-1.3500312e-13 C17.4777367,-1.3500312e-13 15.7183954,1.63716771 15.7183954,3.65671642" id="Oval-68-Copy-2"></path>
                    <path d="M31.4367908,3.65671642 C31.4367908,1.63716771 29.6774495,-1.42108547e-14 27.507192,-1.42108547e-14 C25.3369344,-1.42108547e-14 23.5775931,1.63716771 23.5775931,3.65671642" id="Oval-68-Copy-3"></path>
                    <path d="M39.2959885,3.65671642 C39.2959885,1.63716771 37.5366472,-4.4408921e-14 35.3663897,-4.4408921e-14 C33.1961321,-4.4408921e-14 31.4367908,1.63716771 31.4367908,3.65671642" id="Oval-68-Copy-4"></path>
                    <path d="M47.1551862,3.65671642 C47.1551862,1.63716771 45.3958449,-1.49213975e-13 43.2255874,-1.49213975e-13 C41.0553298,-1.49213975e-13 39.2959885,1.63716771 39.2959885,3.65671642" id="Oval-68-Copy-5"></path>
                    <path d="M55.0143839,3.65671642 C55.0143839,1.63716771 53.2550426,7.81597009e-14 51.0847851,7.81597009e-14 C48.9145275,7.81597009e-14 47.1551862,1.63716771 47.1551862,3.65671642" id="Oval-68-Copy-6"></path>
                    <path d="M33.4814376,32.3880597 L21.955344,32.3880597 C21.9621093,32.1937995 21.9655172,31.998778 21.9655172,31.8030405 C21.9655172,21.6707067 12.83367,13.4568273 1.56896552,13.4568273 C1.41482049,13.4568273 1.26107483,13.4583653 1.10774648,13.4614253 L0.106202639,4.12441496 C0.0475485409,3.57760523 0.446235234,3.13432836 1.00953236,3.13432836 L54.4272492,3.13432836 C54.9847986,3.13432836 55.3899882,3.57056507 55.330579,4.12441496 L54.3290351,13.4614253 C54.1757068,13.4583653 54.0219611,13.4568273 53.8678161,13.4568273 C42.6031116,13.4568273 33.4712644,21.6707067 33.4712644,31.8030405 C33.4712644,31.998778 33.4746723,32.1937995 33.4814376,32.3880597 Z" id="Combined-Shape" stroke-linecap="round" stroke-linejoin="round"></path>
                    <path d="M28.2413793,10.9701493 C29.1870633,9.60556999 32.5488477,10.135589 32.5488477,13.5285662 C32.5488477,15.8379913 29.3922214,17.9397782 28.3133731,18.7508699 C28.1129823,18.9015105 27.9382725,18.9374621 27.780171,18.9374621 C27.622119,18.9374621 27.4485494,18.9000249 27.2470184,18.7508699 C26.1509669,17.9397782 23.0114943,15.8379913 23.0114943,13.5285662 C23.0114943,10.1350443 26.3021278,9.60482717 27.2470185,10.9701493 C27.32188,11.0783509 27.7424922,11.8866185 27.7801708,12.0149254 C27.8179982,11.8863709 28.1662699,11.0785986 28.2413793,10.9701493 Z" id="Page-1" stroke-linecap="round" stroke-linejoin="round"></path>
                </g>
            </g>
            <g id="Group" transform="translate(69.085854, 39.800476) rotate(19.000000) translate(-69.085854, -39.800476) translate(52.585854, 37.800476)" stroke="#15153D" stroke-linecap="round">
                <path d="M1.5,3.23986174 L1.5,0.249220134" id="Line"></path>
                <path d="M4.5,3.23986174 L4.5,0.249220134" id="Line"></path>
                <path d="M7.5,3.23986174 L7.5,0.249220134" id="Line"></path>
                <path d="M10.5,3.23986174 L10.5,0.249220134" id="Line"></path>
                <path d="M13.5,3.23986174 L13.5,0.249220134" id="Line"></path>
                <path d="M16.5,3.23986174 L16.5,0.249220134" id="Line"></path>
                <path d="M19.5,3.23986174 L19.5,0.249220134" id="Line-Copy-2"></path>
                <path d="M22.5,3.23986174 L22.5,0.249220134" id="Line-Copy-3"></path>
                <path d="M25.5,3.23986174 L25.5,0.249220134" id="Line-Copy-4"></path>
                <path d="M28.5,3.23986174 L28.5,0.249220134" id="Line-Copy-5"></path>
                <path d="M31.5,3.23986174 L31.5,0.249220134" id="Line-Copy-6"></path>
            </g>
        </g>
    </g>
</svg>