<?xml version="1.0" encoding="UTF-8" standalone="no"?>
<svg width="95px" height="95px" viewBox="0 0 95 95" version="1.1" xmlns="http://www.w3.org/2000/svg" xmlns:xlink="http://www.w3.org/1999/xlink">
    <!-- Generator: Sketch 40 (33762) - http://www.bohemiancoding.com/sketch -->
    <title>Cat14-Montres</title>
    <desc>Created with Sketch.</desc>
    <defs>
        <path d="M22.2132216,35.4017596 L22.2132216,35.4017596 L30.5460257,37.0214926 C31.5244638,37.2116817 32.1648411,38.1519662 31.9733878,39.1369081 L31.9733878,39.1369081 C31.78326,40.1150307 30.8288967,40.752406 29.8617492,40.5644115 L21.2104819,38.8827755" id="path-1"></path>
        <mask id="mask-2" maskContentUnits="userSpaceOnUse" maskUnits="objectBoundingBox" x="0" y="0" width="10.7967483" height="5.19552088" fill="white">
            <use xlink:href="#path-1"></use>
        </mask>
        <path d="M16.701631,36.8137486 L16.701631,36.8137486 L12.4307522,32.9682321 C11.6878254,32.2992978 11.6214168,31.1618949 12.2928069,30.4162407 L12.2928069,30.4162407 C12.9595486,29.675749 14.1072083,29.6221501 14.8356625,30.2780532 L18.792913,33.8411776" id="path-3"></path>
        <mask id="mask-4" maskContentUnits="userSpaceOnUse" maskUnits="objectBoundingBox" x="0" y="0" width="6.96426752" height="6.99271825" fill="white">
            <use xlink:href="#path-3"></use>
        </mask>
    </defs>
    <g id="Symbols" stroke="none" stroke-width="1" fill="none" fill-rule="evenodd">
        <g id="Cat14-Montres" stroke="#15153D">
            <g id="Group" transform="translate(28.000000, 11.000000)">
                <path d="M8.5,20.5805122 L8.5,1.99204587 C8.5,0.891869315 9.36242607,0 10.4138701,0 L28.5861299,0 C29.6431312,0 30.5,0.902803557 30.5,1.99557782 L30.5,20.580513" id="Rectangle-135" stroke-width="2"></path>
                <path d="M8.5,73.010701 L8.5,54.4222346 C8.5,53.3220581 9.36242607,52.4301887 10.4138701,52.4301887 L28.5861299,52.4301887 C29.6431312,52.4301887 30.5,53.3329923 30.5,54.4257666 L30.5,72.440889" id="Rectangle-135" stroke-width="2" transform="translate(19.500000, 62.720445) rotate(180.000000) translate(-19.500000, -62.720445) "></path>
                <path d="M25.5066524,1.43112476 L25.5066524,17.500001" id="Line" stroke-linecap="square"></path>
                <path d="M13.5066524,1.43112476 L13.5066524,17.500001" id="Line" stroke-linecap="square"></path>
                <path d="M13.5066524,55.4999986 L13.5066524,71.5000029" id="Line" stroke-linecap="square"></path>
                <path d="M25.5066524,55.4999986 L25.5066524,71.5000029" id="Line" stroke-linecap="square"></path>
                <path d="M19.5,56 C30.2695526,56 39,47.2695526 39,36.5 C39,25.7304474 30.2695526,17 19.5,17 C8.73044738,17 0,25.7304474 0,36.5 C0,47.2695526 8.73044738,56 19.5,56 Z" id="Oval-90" stroke-width="2"></path>
                <ellipse id="Oval-90" stroke-width="2" cx="19.5" cy="36.5" rx="15.5" ry="15.5"></ellipse>
                <ellipse id="Oval-90" cx="19.5" cy="36.5" rx="2.75641026" ry="2.7739726"></ellipse>
                <use id="Rectangle-136" mask="url(#mask-2)" stroke-width="2" xlink:href="#path-1"></use>
                <use id="Rectangle-136" mask="url(#mask-4)" stroke-width="2" xlink:href="#path-3"></use>
            </g>
            <g id="Group" transform="translate(34.000000, 55.000000)" stroke-linecap="round">
                <path d="M1.5,1.5 L1.5,0.5" id="Line"></path>
                <path d="M4.5,5.5 L4.5,1.5" id="Line-Copy-2"></path>
                <path d="M7.5,6.5 L7.5,2.5" id="Line-Copy-3"></path>
                <path d="M10.5,7.5 L10.5,3.5" id="Line-Copy-4"></path>
                <path d="M13.5,8.5 L13.5,4.5" id="Line-Copy-4"></path>
                <path d="M16.5,7.5 L16.5,3.5" id="Line-Copy-5"></path>
                <path d="M19.5,6.5 L19.5,2.5" id="Line-Copy-6"></path>
                <path d="M22.5,5.5 L22.5,1.5" id="Line"></path>
                <path d="M25.5,2.5 L25.5,0.5" id="Line"></path>
            </g>
        </g>
    </g>
</svg>