<?xml version="1.0" encoding="UTF-8" standalone="no"?>
<svg width="95px" height="95px" viewBox="0 0 95 95" version="1.1" xmlns="http://www.w3.org/2000/svg" xmlns:xlink="http://www.w3.org/1999/xlink">
    <!-- Generator: Sketch 40 (33762) - http://www.bohemiancoding.com/sketch -->
    <title>Cat15-Sports</title>
    <desc>Created with Sketch.</desc>
    <defs></defs>
    <g id="Symbols" stroke="none" stroke-width="1" fill="none" fill-rule="evenodd">
        <g id="Cat15-Sports">
            <g id="Group" transform="translate(9.000000, 23.000000)">
                <path d="M35.9999994,33.9999991 L14.5,33.9999991 L26.0965457,9.85869504 L54.5127843,9.85869504" id="Path-505" stroke="#15153D" stroke-width="2" stroke-linecap="round" stroke-linejoin="round"></path>
                <path d="M63.2116329,34.215471 L52.7730146,0.579923238 C52.7730146,0.579923238 55.6726308,0.579923238 63.7915561,0.579923238 C72.5000006,0.579923238 71.0000006,10.4999996 64,10.4999996 C63.4999996,10.4999996 63.4999996,10.4999996 63.4999996,10.4999996" id="Path-506" stroke="#15153D" stroke-width="2" stroke-linecap="round" stroke-linejoin="round"></path>
                <path d="M54.5127843,3.57992324 C54.5127843,3.57992324 61.5000003,3.57992324 64.0000003,3.57992324 C66.5000003,3.57992324 67.0000003,7.03996166 63.5000003,7.03996166 C60.9999999,7.03996166 60.9999999,10.5000001 63.5000003,10.5000001" id="Path-506" stroke="#15153D" stroke-width="2" stroke-linecap="round" stroke-linejoin="round"></path>
                <polyline id="Path-507" stroke="#15153D" stroke-width="2" stroke-linecap="round" stroke-linejoin="round" points="26.0965457 3.49999999 26.0965457 10.4579276 37.5000005 31.5"></polyline>
                <path d="M41,31.9999994 L56.2525541,12.178388" id="Path-508" stroke="#15153D" stroke-width="2" stroke-linecap="round" stroke-linejoin="round"></path>
                <rect id="Rectangle-138" stroke="#15153D" stroke-width="2" x="20.8772366" y="0" width="12.7583112" height="3.47953943" rx="1.73976971"></rect>
                <ellipse id="Oval-93" stroke="#15153D" stroke-width="2" cx="38.8548569" cy="34.215471" rx="2.89961619" ry="2.89961619"></ellipse>
                <path d="M63.5,49 C71.5081289,49 78,42.5081289 78,34.5 C78,26.4918711 71.5081289,20 63.5,20 C55.4918711,20 49,26.4918711 49,34.5 C49,42.5081289 55.4918711,49 63.5,49 Z" id="Oval-93-Copy-4" stroke="#15153D" stroke-width="2"></path>
                <ellipse id="Oval-93-Copy-4" stroke="#15153D" stroke-width="2" cx="63.5" cy="34.5" rx="10.5" ry="10.5"></ellipse>
                <ellipse id="Oval-93-Copy-4" fill="#15153D" cx="63.5" cy="34.5" rx="2.25" ry="2.25"></ellipse>
                <path d="M14.5,49 C22.5081289,49 29,42.5081289 29,34.5 C29,26.4918711 22.5081289,20 14.5,20 C6.49187113,20 0,26.4918711 0,34.5 C0,42.5081289 6.49187113,49 14.5,49 Z" id="Oval-93-Copy-4" stroke="#15153D" stroke-width="2"></path>
                <ellipse id="Oval-93-Copy-4" stroke="#15153D" stroke-width="2" cx="14.5" cy="34.5" rx="10.5" ry="10.5"></ellipse>
                <ellipse id="Oval-93-Copy-4" fill="#15153D" cx="14.5" cy="34.5" rx="2.25" ry="2.25"></ellipse>
            </g>
        </g>
    </g>
</svg>