<?xml version="1.0" encoding="UTF-8" standalone="no"?>
<svg width="95px" height="95px" viewBox="0 0 95 95" version="1.1" xmlns="http://www.w3.org/2000/svg" xmlns:xlink="http://www.w3.org/1999/xlink">
    <!-- Generator: Sketch 40 (33762) - http://www.bohemiancoding.com/sketch -->
    <title>Cat4-Cuisine</title>
    <desc>Created with Sketch.</desc>
    <defs></defs>
    <g id="Symbols" stroke="none" stroke-width="1" fill="none" fill-rule="evenodd">
        <g id="Cat4-Cuisine" stroke="#15153D">
            <g id="Couteau" transform="translate(79.711345, 48.477734) scale(-1, 1) translate(-79.711345, -48.477734) translate(75.211345, 21.977734)" stroke-width="2">
                <path d="M3.14131194,31.8133596 L8.07765963,31.8133596 L8.07765946,49.6666134 C8.07765945,51.031833 6.98212393,52.1385622 5.60948569,52.1385622 L5.60948569,52.1385622 C4.24635097,52.1385622 3.14131194,51.0313569 3.14131194,49.6666134 L3.14131194,31.8133596 Z" id="Rectangle-34-Copy"></path>
                <path d="M8.07765929,31.8133596 L8.07765929,0 C8.07765929,0 -2.92488543e-16,5.66444981 -2.92488543e-16,19.2591293 L-2.92488548e-16,31.8133596 L8.07765929,31.8133596 Z" id="Path-320" stroke-linecap="round" stroke-linejoin="round"></path>
            </g>
            <g id="Fourchette" transform="translate(17.462765, 48.094030) scale(-1, 1) translate(-17.462765, -48.094030) translate(10.462765, 21.094030)" stroke-width="2">
                <path d="M4.15380021,34.403166 C4.15380021,33.0212547 5.26003568,31.9009943 6.64608033,31.9009943 L6.64608033,31.9009943 C8.02252864,31.9009943 9.13836046,33.0144746 9.13836046,34.4031659 L9.13836046,50.6661522 C9.13836046,52.0480634 8.03212498,53.168324 6.64608033,53.1683242 L6.64608033,53.1683242 C5.26963203,53.1683245 4.15380021,52.0548443 4.15380021,50.6661529 L4.15380021,34.403166 Z" id="Rectangle-34"></path>
                <path d="M6.64608033,31.4920072 L6.64608033,24.5392264" id="Line" stroke-linecap="square"></path>
                <rect id="Rectangle-36" x="0.830760042" y="13.0875874" width="11.6306406" height="10.6336648" rx="5"></rect>
                <path d="M12.4614006,14.3910854 L12.4614006,1.09307025" id="Line" stroke-linecap="round"></path>
                <path d="M0.830760042,14.3910854 L0.830760042,1.09307025" id="Line-Copy" stroke-linecap="round"></path>
                <path d="M6.64608033,10.0692305 L6.64608033,1.09307025" id="Line-Copy-2" stroke-linecap="round"></path>
            </g>
            <g id="Assiette" transform="translate(27.000000, 27.000000)">
                <path d="M22.0094366,44.6522018 C33.9653707,44.6522018 43.6575702,34.738507 43.6575702,22.5093447 C43.6575702,10.2801824 33.9653707,0.366487556 22.0094366,0.366487556 C10.0535026,0.366487556 0.361303029,10.2801824 0.361303029,22.5093447 C0.361303029,34.738507 10.0535026,44.6522018 22.0094366,44.6522018 Z M22.0424287,37.6930145 C30.2225604,37.6930145 36.8538675,30.9101626 36.8538675,22.5430907 C36.8538675,14.1760189 30.2225604,7.39316699 22.0424287,7.39316699 C13.8622969,7.39316699 7.2309899,14.1760189 7.2309899,22.5430907 C7.2309899,30.9101626 13.8622969,37.6930145 22.0424287,37.6930145 Z" id="Combined-Shape" stroke-width="2"></path>
                <g id="Group" transform="translate(10.000000, 29.000000)" stroke-linecap="round">
                    <path d="M1.5,3.5 L1.5,0.5" id="Line"></path>
                    <path d="M4.5,6.5 L4.5,2.5" id="Line-Copy-2"></path>
                    <path d="M7.5,7.5 L7.5,3.5" id="Line-Copy-3"></path>
                    <path d="M10.5,8.5 L10.5,4.5" id="Line-Copy-4"></path>
                    <path d="M13.5,8.5 L13.5,4.5" id="Line-Copy-5"></path>
                    <path d="M16.5,8.5 L16.5,3.5" id="Line-Copy-6"></path>
                    <path d="M19.5,6.5 L19.5,2.5" id="Line"></path>
                    <path d="M22.5,4.5 L22.5,0.5" id="Line"></path>
                </g>
            </g>
        </g>
    </g>
</svg>