<?xml version="1.0" encoding="UTF-8" standalone="no"?>
<svg width="95px" height="95px" viewBox="0 0 95 95" version="1.1" xmlns="http://www.w3.org/2000/svg" xmlns:xlink="http://www.w3.org/1999/xlink">
    <!-- Generator: Sketch 40 (33762) - http://www.bohemiancoding.com/sketch -->
    <title>Cat6-Enfants</title>
    <desc>Created with Sketch.</desc>
    <defs>
        <path d="M3.79661017,14 L3.79661017,15.2283089 C4.3182013,28.1795764 14.9536454,38.5243902 28,38.5243902 C33.25196,38.5243902 38.1132181,36.8479536 42.0800402,33.9999113" id="path-1"></path>
        <path d="M42.0509887,19.5703491 C37.3783005,21.9104779 34.1694915,26.7504258 34.1694915,32.3414634 C34.1694915,34.145412 34.5035383,35.8711698 35.1130218,37.4599991 L35.1130218,37.4599991 C37.6322767,36.6848898 39.9764531,35.5088253 42.0714234,34.0060951" id="path-3"></path>
        <rect id="path-5" x="0" y="6.65853659" width="12.9962378" height="8.56097561" rx="3"></rect>
        <mask id="mask-6" maskContentUnits="userSpaceOnUse" maskUnits="objectBoundingBox" x="0" y="0" width="12.9962378" height="8.56097561" fill="white">
            <use xlink:href="#path-5"></use>
        </mask>
    </defs>
    <g id="Symbols" stroke="none" stroke-width="1" fill="none" fill-rule="evenodd">
        <g id="Cat6-Enfants">
            <g id="Couche" transform="translate(15.000000, 28.000000)">
                <mask id="mask-2" fill="white">
                    <use xlink:href="#path-1"></use>
                </mask>
                <use id="Combined-Shape" stroke="#15153D" stroke-width="2" xlink:href="#path-1"></use>
                <path d="M45,0 L6.64395447,0 C5.06649248,0 3.79661017,1.69792379 3.79661017,3.79241893 L3.79661017,7.5" id="Path" stroke="#15153D" stroke-width="2"></path>
                <path d="M4.16196637,18.4902888 C5.74196883,27.5119421 12.2966335,34.816973 20.8869782,37.4599991 C21.4964617,35.8711698 21.8305085,34.145412 21.8305085,32.3414634 C21.8305085,24.461303 15.4562575,18.0731707 7.59322034,18.0731707 C6.41022412,18.0731707 5.260927,18.217768 4.16196637,18.4902888 Z" id="Combined-Shape" stroke="#15153D" stroke-width="2"></path>
                <mask id="mask-4" fill="white">
                    <use xlink:href="#path-3"></use>
                </mask>
                <use id="Combined-Shape" stroke="#15153D" stroke-width="2" xlink:href="#path-3"></use>
                <use id="Rectangle-142" stroke="#15153D" mask="url(#mask-6)" stroke-width="4" xlink:href="#path-5"></use>
                <g id="Group" transform="translate(6.644068, 0.000000)" stroke="#15153D" stroke-linecap="round">
                    <path d="M1.42372881,4.41637631 L1.42372881,0.339721254" id="Line"></path>
                    <path d="M4.27118644,4.41637631 L4.27118644,0.339721254" id="Line"></path>
                    <path d="M7.11864407,4.41637631 L7.11864407,0.339721254" id="Line"></path>
                    <path d="M9.96610169,4.41637631 L9.96610169,0.339721254" id="Line"></path>
                    <path d="M12.8135593,4.41637631 L12.8135593,0.339721254" id="Line-Copy-2"></path>
                    <path d="M15.6610169,4.41637631 L15.6610169,0.339721254" id="Line-Copy-3"></path>
                    <path d="M18.5084746,4.41637631 L18.5084746,0.339721254" id="Line-Copy-4"></path>
                    <path d="M21.3559322,4.41637631 L21.3559322,0.339721254" id="Line-Copy-5"></path>
                    <path d="M24.2033898,4.41637631 L24.2033898,0.339721254" id="Line-Copy-6"></path>
                    <path d="M27.0508475,4.41637631 L27.0508475,0.339721254" id="Line"></path>
                    <path d="M29.8983051,4.41637631 L29.8983051,0.339721254" id="Line"></path>
                    <path d="M32.7457627,4.41637631 L32.7457627,0.339721254" id="Line"></path>
                </g>
            </g>
            <g id="Biberon" transform="translate(55.000000, 18.000000)" stroke="#15153D">
                <path d="M2,21 L23,21 L23,32 L23,50.9986131 C23,52.6562333 21.6544098,54 19.991212,54 L5.00878799,54 C3.34708027,54 2,52.6654891 2,50.9986425 L2,21 Z" id="Rectangle-144" stroke-width="2"></path>
                <path d="M13.8588198,32.5 L22.6025574,32.5" id="Line" stroke-linecap="round"></path>
                <path d="M13.8588198,35.5 L22.6025574,35.5" id="Line-Copy-7" stroke-linecap="round"></path>
                <path d="M13.8588198,38.5 L22.6025574,38.5" id="Line-Copy-8" stroke-linecap="round"></path>
                <path d="M13.8588198,41.5 L22.6025574,41.5" id="Line-Copy-9" stroke-linecap="round"></path>
                <path d="M14.8529412,7.36673408 C19.519062,8.37215674 23,12.3034823 23,17 L2,17 C2,12.3034823 5.48093801,8.37215674 10.1470588,7.36673408 L10.1470588,3.39012515 C10.1470588,1.76470588 11.1914466,0.764705882 12.5,0.764705882 C13.9117647,0.764705882 14.8529412,1.76470588 14.8529412,3.39012515 L14.8529412,7.36673408 Z" id="Combined-Shape" stroke-width="2" stroke-linecap="round" stroke-linejoin="round"></path>
                <rect id="Rectangle-145" stroke-width="2" x="0" y="17" width="25" height="4" rx="2"></rect>
            </g>
        </g>
    </g>
</svg>