<?xml version="1.0" encoding="UTF-8" standalone="no"?>
<svg width="64px" height="48px" viewBox="0 0 64 48" version="1.1" xmlns="http://www.w3.org/2000/svg" xmlns:xlink="http://www.w3.org/1999/xlink">
    <!-- Generator: Sketch 40 (33762) - http://www.bohemiancoding.com/sketch -->
    <title>Favoris-Etoile-vide</title>
    <desc>Created with Sketch.</desc>
    <defs></defs>
    <g id="Symbols" stroke="none" stroke-width="1" fill="none" fill-rule="evenodd">
        <g id="Favoris-Etoile-vide" stroke="#959BAB">
            <path d="M32.3146623,9.43521816 L35.7123275,16.3201421 C35.9983378,16.8997438 36.7564376,17.4497107 37.3959981,17.5427502 L44.9956033,18.6475082 C45.6351638,18.7405478 45.7798919,19.185759 45.3167619,19.637173 L39.8184713,24.9976272 C39.3553413,25.4490412 39.0665742,26.3394638 39.1754649,26.9755784 L40.473883,34.5448596 C40.5827736,35.1809742 40.204413,35.4552684 39.6317031,35.1554744 L32.8343052,31.582068 C32.2622845,31.2815848 31.326376,31.2815848 30.7543552,31.582068 L23.9569574,35.1554744 C23.3849367,35.4552684 23.006576,35.1809742 23.1161559,34.5448596 L24.4138848,26.9755784 C24.5234647,26.3394638 24.2346976,25.4490412 23.7715676,24.9976272 L18.2712094,19.637173 C17.8080794,19.185759 17.9528075,18.7405478 18.5930572,18.6475082 L26.1919732,17.5427502 C26.8315337,17.4497107 27.5889443,16.900433 27.8749546,16.3201421 L31.2739982,9.43521816 C31.5600085,8.85492728 32.028652,8.85492728 32.3146623,9.43521816 Z" id="Page-1"></path>
        </g>
    </g>
</svg>